<mxfile host="app.diagrams.net" modified="2024-05-24T01:27:52.900Z" agent="Mozilla/5.0 (Windows NT 10.0; Win64; x64) AppleWebKit/537.36 (KHTML, like Gecko) Chrome/125.0.0.0 Safari/537.36 Edg/125.0.0.0" etag="4VLmzIRVcBi78OCA_VRw" version="24.4.4" type="device">
  <diagram name="第 1 页" id="5yGR8V2NXn_hFT8d-yvv">
    <mxGraphModel dx="3432" dy="2527" grid="1" gridSize="10" guides="1" tooltips="1" connect="1" arrows="1" fold="1" page="1" pageScale="1" pageWidth="827" pageHeight="1169" math="0" shadow="0">
      <root>
        <mxCell id="0" />
        <mxCell id="1" parent="0" />
        <mxCell id="f4uyZzwKaXZhQXXmgzNp-131" value="" style="rounded=0;whiteSpace=wrap;html=1;" parent="1" vertex="1">
          <mxGeometry x="-200" y="-830" width="400" height="480" as="geometry" />
        </mxCell>
        <mxCell id="f4uyZzwKaXZhQXXmgzNp-132" value="" style="rounded=0;whiteSpace=wrap;html=1;" parent="1" vertex="1">
          <mxGeometry x="-610" y="-770" width="190" height="390" as="geometry" />
        </mxCell>
        <mxCell id="0THO5SwTwFRWDYIjX72J-4" style="edgeStyle=orthogonalEdgeStyle;rounded=0;orthogonalLoop=1;jettySize=auto;html=1;entryX=1;entryY=0.25;entryDx=0;entryDy=0;" edge="1" parent="1" source="f4uyZzwKaXZhQXXmgzNp-133" target="f4uyZzwKaXZhQXXmgzNp-158">
          <mxGeometry relative="1" as="geometry">
            <Array as="points">
              <mxPoint x="320" y="-675" />
              <mxPoint x="320" y="-675" />
            </Array>
          </mxGeometry>
        </mxCell>
        <mxCell id="f4uyZzwKaXZhQXXmgzNp-133" value="" style="shape=cylinder3;whiteSpace=wrap;html=1;boundedLbl=1;backgroundOutline=1;size=15;movable=1;resizable=1;rotatable=1;deletable=1;editable=1;locked=0;connectable=1;" parent="1" vertex="1">
          <mxGeometry x="380" y="-800" width="200" height="240" as="geometry" />
        </mxCell>
        <mxCell id="f4uyZzwKaXZhQXXmgzNp-134" value="&lt;p&gt;感測器資料&lt;/p&gt;" style="rounded=0;whiteSpace=wrap;html=1;movable=1;resizable=1;rotatable=1;deletable=1;editable=1;locked=0;connectable=1;" parent="1" vertex="1">
          <mxGeometry x="420" y="-760" width="120" height="60" as="geometry" />
        </mxCell>
        <mxCell id="f4uyZzwKaXZhQXXmgzNp-135" value="魚塭資料" style="rounded=0;whiteSpace=wrap;html=1;movable=1;resizable=1;rotatable=1;deletable=1;editable=1;locked=0;connectable=1;" parent="1" vertex="1">
          <mxGeometry x="420" y="-700" width="120" height="60" as="geometry" />
        </mxCell>
        <mxCell id="f4uyZzwKaXZhQXXmgzNp-136" value="畫面資料" style="rounded=0;whiteSpace=wrap;html=1;movable=1;resizable=1;rotatable=1;deletable=1;editable=1;locked=0;connectable=1;" parent="1" vertex="1">
          <mxGeometry x="420" y="-640" width="120" height="60" as="geometry" />
        </mxCell>
        <mxCell id="0THO5SwTwFRWDYIjX72J-2" style="edgeStyle=orthogonalEdgeStyle;rounded=0;orthogonalLoop=1;jettySize=auto;html=1;" edge="1" parent="1" source="f4uyZzwKaXZhQXXmgzNp-137" target="f4uyZzwKaXZhQXXmgzNp-144">
          <mxGeometry relative="1" as="geometry">
            <Array as="points">
              <mxPoint x="360" y="-470" />
              <mxPoint x="360" y="-470" />
            </Array>
          </mxGeometry>
        </mxCell>
        <mxCell id="f4uyZzwKaXZhQXXmgzNp-137" value="&lt;h1&gt;感測資料&lt;/h1&gt;" style="rounded=0;whiteSpace=wrap;html=1;fontStyle=1" parent="1" vertex="1">
          <mxGeometry x="410" y="-510" width="120" height="60" as="geometry" />
        </mxCell>
        <mxCell id="f4uyZzwKaXZhQXXmgzNp-138" value="水質感測器" style="rounded=0;whiteSpace=wrap;html=1;" parent="1" vertex="1">
          <mxGeometry x="410" y="-449" width="120" height="60" as="geometry" />
        </mxCell>
        <mxCell id="f4uyZzwKaXZhQXXmgzNp-139" value="攝影機" style="rounded=0;whiteSpace=wrap;html=1;" parent="1" vertex="1">
          <mxGeometry x="410" y="-389" width="120" height="60" as="geometry" />
        </mxCell>
        <mxCell id="f4uyZzwKaXZhQXXmgzNp-140" value="台水台電設備" style="rounded=0;whiteSpace=wrap;html=1;" parent="1" vertex="1">
          <mxGeometry x="410" y="-330" width="120" height="60" as="geometry" />
        </mxCell>
        <mxCell id="f4uyZzwKaXZhQXXmgzNp-141" value="資料庫" style="text;html=1;align=center;verticalAlign=middle;whiteSpace=wrap;rounded=0;movable=1;resizable=1;rotatable=1;deletable=1;editable=1;locked=0;connectable=1;" parent="1" vertex="1">
          <mxGeometry x="450" y="-800" width="60" height="30" as="geometry" />
        </mxCell>
        <mxCell id="f4uyZzwKaXZhQXXmgzNp-142" value="&lt;h1&gt;前端&lt;/h1&gt;" style="rounded=0;whiteSpace=wrap;html=1;" parent="1" vertex="1">
          <mxGeometry x="-610" y="-830" width="120" height="60" as="geometry" />
        </mxCell>
        <mxCell id="0THO5SwTwFRWDYIjX72J-3" style="edgeStyle=orthogonalEdgeStyle;rounded=0;orthogonalLoop=1;jettySize=auto;html=1;" edge="1" parent="1" source="f4uyZzwKaXZhQXXmgzNp-144" target="f4uyZzwKaXZhQXXmgzNp-137">
          <mxGeometry relative="1" as="geometry" />
        </mxCell>
        <mxCell id="f4uyZzwKaXZhQXXmgzNp-144" value="資料擷取" style="rounded=0;whiteSpace=wrap;html=1;" parent="1" vertex="1">
          <mxGeometry x="50" y="-510" width="120" height="60" as="geometry" />
        </mxCell>
        <mxCell id="f4uyZzwKaXZhQXXmgzNp-145" style="edgeStyle=orthogonalEdgeStyle;rounded=0;orthogonalLoop=1;jettySize=auto;html=1;entryX=1;entryY=0.5;entryDx=0;entryDy=0;" parent="1" source="f4uyZzwKaXZhQXXmgzNp-149" target="f4uyZzwKaXZhQXXmgzNp-162" edge="1">
          <mxGeometry relative="1" as="geometry" />
        </mxCell>
        <mxCell id="f4uyZzwKaXZhQXXmgzNp-146" style="edgeStyle=orthogonalEdgeStyle;rounded=0;orthogonalLoop=1;jettySize=auto;html=1;entryX=1;entryY=0.25;entryDx=0;entryDy=0;" parent="1" source="f4uyZzwKaXZhQXXmgzNp-149" target="f4uyZzwKaXZhQXXmgzNp-160" edge="1">
          <mxGeometry relative="1" as="geometry" />
        </mxCell>
        <mxCell id="f4uyZzwKaXZhQXXmgzNp-147" style="edgeStyle=orthogonalEdgeStyle;rounded=0;orthogonalLoop=1;jettySize=auto;html=1;entryX=1;entryY=0.5;entryDx=0;entryDy=0;" parent="1" source="f4uyZzwKaXZhQXXmgzNp-149" target="f4uyZzwKaXZhQXXmgzNp-163" edge="1">
          <mxGeometry relative="1" as="geometry" />
        </mxCell>
        <mxCell id="f4uyZzwKaXZhQXXmgzNp-148" style="edgeStyle=orthogonalEdgeStyle;rounded=0;orthogonalLoop=1;jettySize=auto;html=1;entryX=0.507;entryY=0.142;entryDx=0;entryDy=0;entryPerimeter=0;" parent="1" source="f4uyZzwKaXZhQXXmgzNp-149" target="f4uyZzwKaXZhQXXmgzNp-170" edge="1">
          <mxGeometry relative="1" as="geometry">
            <Array as="points">
              <mxPoint x="31" y="-620" />
            </Array>
          </mxGeometry>
        </mxCell>
        <mxCell id="f4uyZzwKaXZhQXXmgzNp-149" value="管理模組" style="rounded=0;whiteSpace=wrap;html=1;" parent="1" vertex="1">
          <mxGeometry x="-190" y="-650" width="120" height="60" as="geometry" />
        </mxCell>
        <mxCell id="f4uyZzwKaXZhQXXmgzNp-150" style="edgeStyle=orthogonalEdgeStyle;rounded=0;orthogonalLoop=1;jettySize=auto;html=1;entryX=1;entryY=0.25;entryDx=0;entryDy=0;" parent="1" target="f4uyZzwKaXZhQXXmgzNp-161" edge="1">
          <mxGeometry relative="1" as="geometry">
            <mxPoint x="-190" y="-729.9999999999998" as="sourcePoint" />
            <mxPoint x="-460" y="-709.9999999999998" as="targetPoint" />
            <Array as="points">
              <mxPoint x="-190" y="-715" />
            </Array>
          </mxGeometry>
        </mxCell>
        <mxCell id="f4uyZzwKaXZhQXXmgzNp-151" value="AI模組&lt;br&gt;(llama-index)" style="rounded=0;whiteSpace=wrap;html=1;" parent="1" vertex="1">
          <mxGeometry x="-190" y="-750" width="120" height="60" as="geometry" />
        </mxCell>
        <mxCell id="f4uyZzwKaXZhQXXmgzNp-152" style="edgeStyle=orthogonalEdgeStyle;rounded=0;orthogonalLoop=1;jettySize=auto;html=1;entryX=1;entryY=0.75;entryDx=0;entryDy=0;" parent="1" source="f4uyZzwKaXZhQXXmgzNp-153" target="f4uyZzwKaXZhQXXmgzNp-160" edge="1">
          <mxGeometry relative="1" as="geometry">
            <Array as="points">
              <mxPoint x="-280" y="-520" />
              <mxPoint x="-280" y="-435" />
            </Array>
          </mxGeometry>
        </mxCell>
        <mxCell id="f4uyZzwKaXZhQXXmgzNp-153" value="視覺模組" style="rounded=0;whiteSpace=wrap;html=1;" parent="1" vertex="1">
          <mxGeometry x="-180" y="-550" width="120" height="60" as="geometry" />
        </mxCell>
        <mxCell id="f4uyZzwKaXZhQXXmgzNp-154" style="edgeStyle=orthogonalEdgeStyle;rounded=0;orthogonalLoop=1;jettySize=auto;html=1;" parent="1" source="f4uyZzwKaXZhQXXmgzNp-158" target="f4uyZzwKaXZhQXXmgzNp-133" edge="1">
          <mxGeometry relative="1" as="geometry">
            <Array as="points">
              <mxPoint x="330" y="-660" />
              <mxPoint x="330" y="-660" />
            </Array>
          </mxGeometry>
        </mxCell>
        <mxCell id="f4uyZzwKaXZhQXXmgzNp-155" style="edgeStyle=orthogonalEdgeStyle;rounded=0;orthogonalLoop=1;jettySize=auto;html=1;entryX=1;entryY=0.5;entryDx=0;entryDy=0;" parent="1" source="f4uyZzwKaXZhQXXmgzNp-158" target="f4uyZzwKaXZhQXXmgzNp-151" edge="1">
          <mxGeometry relative="1" as="geometry" />
        </mxCell>
        <mxCell id="f4uyZzwKaXZhQXXmgzNp-156" style="edgeStyle=orthogonalEdgeStyle;rounded=0;orthogonalLoop=1;jettySize=auto;html=1;" parent="1" source="f4uyZzwKaXZhQXXmgzNp-158" target="f4uyZzwKaXZhQXXmgzNp-149" edge="1">
          <mxGeometry relative="1" as="geometry" />
        </mxCell>
        <mxCell id="f4uyZzwKaXZhQXXmgzNp-157" style="edgeStyle=orthogonalEdgeStyle;rounded=0;orthogonalLoop=1;jettySize=auto;html=1;entryX=1;entryY=0.5;entryDx=0;entryDy=0;" parent="1" source="f4uyZzwKaXZhQXXmgzNp-158" target="f4uyZzwKaXZhQXXmgzNp-153" edge="1">
          <mxGeometry relative="1" as="geometry">
            <Array as="points">
              <mxPoint x="-10" y="-660" />
              <mxPoint x="-10" y="-520" />
            </Array>
          </mxGeometry>
        </mxCell>
        <mxCell id="f4uyZzwKaXZhQXXmgzNp-158" value="資料處理模組" style="rounded=0;whiteSpace=wrap;html=1;" parent="1" vertex="1">
          <mxGeometry x="50" y="-690" width="120" height="60" as="geometry" />
        </mxCell>
        <mxCell id="f4uyZzwKaXZhQXXmgzNp-159" value="&lt;h1&gt;後台&lt;/h1&gt;" style="rounded=0;whiteSpace=wrap;html=1;" parent="1" vertex="1">
          <mxGeometry x="-200" y="-890" width="120" height="60" as="geometry" />
        </mxCell>
        <mxCell id="f4uyZzwKaXZhQXXmgzNp-160" value="儀錶板" style="rounded=0;whiteSpace=wrap;html=1;" parent="1" vertex="1">
          <mxGeometry x="-580" y="-480" width="120" height="60" as="geometry" />
        </mxCell>
        <mxCell id="f4uyZzwKaXZhQXXmgzNp-161" value="&lt;div style=&quot;&quot;&gt;&lt;span style=&quot;background-color: initial;&quot;&gt;魚塭助&lt;/span&gt;&lt;/div&gt;&lt;div style=&quot;&quot;&gt;手&lt;/div&gt;" style="rounded=0;whiteSpace=wrap;html=1;align=center;" parent="1" vertex="1">
          <mxGeometry x="-580" y="-730" width="120" height="60" as="geometry" />
        </mxCell>
        <mxCell id="f4uyZzwKaXZhQXXmgzNp-162" value="&lt;div&gt;產品購買平台&lt;/div&gt;" style="rounded=0;whiteSpace=wrap;html=1;" parent="1" vertex="1">
          <mxGeometry x="-580" y="-570" width="120" height="60" as="geometry" />
        </mxCell>
        <mxCell id="f4uyZzwKaXZhQXXmgzNp-163" value="&lt;div&gt;養殖業ESG知識網&lt;/div&gt;" style="rounded=0;whiteSpace=wrap;html=1;" parent="1" vertex="1">
          <mxGeometry x="-580" y="-650" width="120" height="60" as="geometry" />
        </mxCell>
        <mxCell id="f4uyZzwKaXZhQXXmgzNp-165" value="天氣資料模組" style="rounded=0;whiteSpace=wrap;html=1;" parent="1" vertex="1">
          <mxGeometry x="-180" y="-460" width="120" height="60" as="geometry" />
        </mxCell>
        <mxCell id="f4uyZzwKaXZhQXXmgzNp-166" value="國家天氣網" style="ellipse;shape=cloud;whiteSpace=wrap;html=1;" parent="1" vertex="1">
          <mxGeometry x="-170" y="-310" width="120" height="80" as="geometry" />
        </mxCell>
        <mxCell id="f4uyZzwKaXZhQXXmgzNp-167" style="edgeStyle=orthogonalEdgeStyle;rounded=0;orthogonalLoop=1;jettySize=auto;html=1;" parent="1" source="f4uyZzwKaXZhQXXmgzNp-168" target="f4uyZzwKaXZhQXXmgzNp-151" edge="1">
          <mxGeometry relative="1" as="geometry">
            <Array as="points">
              <mxPoint x="-280" y="-790" />
              <mxPoint x="-150" y="-790" />
            </Array>
          </mxGeometry>
        </mxCell>
        <mxCell id="f4uyZzwKaXZhQXXmgzNp-168" value="OpenAI" style="ellipse;shape=cloud;whiteSpace=wrap;html=1;" parent="1" vertex="1">
          <mxGeometry x="-340" y="-890" width="120" height="80" as="geometry" />
        </mxCell>
        <mxCell id="f4uyZzwKaXZhQXXmgzNp-170" value="漁業交易網" style="ellipse;shape=cloud;whiteSpace=wrap;html=1;" parent="1" vertex="1">
          <mxGeometry x="-30" y="-310" width="120" height="80" as="geometry" />
        </mxCell>
        <mxCell id="f4uyZzwKaXZhQXXmgzNp-175" style="edgeStyle=orthogonalEdgeStyle;rounded=0;orthogonalLoop=1;jettySize=auto;html=1;entryX=0.5;entryY=1;entryDx=0;entryDy=0;" parent="1" source="f4uyZzwKaXZhQXXmgzNp-165" target="f4uyZzwKaXZhQXXmgzNp-153" edge="1">
          <mxGeometry relative="1" as="geometry" />
        </mxCell>
        <mxCell id="f4uyZzwKaXZhQXXmgzNp-176" value="" style="endArrow=classic;html=1;rounded=0;exitX=0.66;exitY=0.173;exitDx=0;exitDy=0;exitPerimeter=0;entryX=0.75;entryY=1;entryDx=0;entryDy=0;" parent="1" source="f4uyZzwKaXZhQXXmgzNp-166" target="f4uyZzwKaXZhQXXmgzNp-165" edge="1">
          <mxGeometry relative="1" as="geometry">
            <mxPoint x="-98" y="-400" as="sourcePoint" />
            <mxPoint x="20" y="-290" as="targetPoint" />
            <Array as="points" />
          </mxGeometry>
        </mxCell>
        <mxCell id="f4uyZzwKaXZhQXXmgzNp-179" style="edgeStyle=orthogonalEdgeStyle;rounded=0;orthogonalLoop=1;jettySize=auto;html=1;entryX=0.857;entryY=0.766;entryDx=0;entryDy=0;entryPerimeter=0;" parent="1" source="f4uyZzwKaXZhQXXmgzNp-151" target="f4uyZzwKaXZhQXXmgzNp-168" edge="1">
          <mxGeometry relative="1" as="geometry">
            <Array as="points">
              <mxPoint x="-130" y="-810" />
              <mxPoint x="-237" y="-810" />
            </Array>
          </mxGeometry>
        </mxCell>
        <mxCell id="f4uyZzwKaXZhQXXmgzNp-182" style="edgeStyle=orthogonalEdgeStyle;rounded=0;orthogonalLoop=1;jettySize=auto;html=1;entryX=0;entryY=0.833;entryDx=0;entryDy=0;entryPerimeter=0;" parent="1" source="f4uyZzwKaXZhQXXmgzNp-161" target="f4uyZzwKaXZhQXXmgzNp-151" edge="1">
          <mxGeometry relative="1" as="geometry" />
        </mxCell>
        <mxCell id="0THO5SwTwFRWDYIjX72J-6" style="edgeStyle=orthogonalEdgeStyle;rounded=0;orthogonalLoop=1;jettySize=auto;html=1;entryX=0;entryY=0;entryDx=0;entryDy=172.50000000000003;entryPerimeter=0;" edge="1" parent="1" source="f4uyZzwKaXZhQXXmgzNp-144" target="f4uyZzwKaXZhQXXmgzNp-133">
          <mxGeometry relative="1" as="geometry">
            <Array as="points">
              <mxPoint x="110" y="-628" />
            </Array>
          </mxGeometry>
        </mxCell>
      </root>
    </mxGraphModel>
  </diagram>
</mxfile>
